<?xml version="1.0" encoding="UTF-8" standalone="no"?><!DOCTYPE svg PUBLIC "-//W3C//DTD SVG 1.1//EN" "http://www.w3.org/Graphics/SVG/1.1/DTD/svg11.dtd"><svg width="100%" height="100%" viewBox="0 0 2570 826" version="1.1" xmlns="http://www.w3.org/2000/svg" xmlns:xlink="http://www.w3.org/1999/xlink" xml:space="preserve" xmlns:serif="http://www.serif.com/" style="fill-rule:evenodd;clip-rule:evenodd;stroke-linejoin:round;stroke-miterlimit:2;"><g id="Capa-1" serif:id="Capa 1"><path d="M322.37,248.822c-3.546,-2.504 -4.317,-9.321 -2.058,-13.183c3.329,-5.692 13.517,-5.408 16.538,-5.371c32.317,0.438 64.458,-6.154 96.146,-12.504c44.771,-8.967 89.396,-18.779 134.363,-26.633c44.763,-7.821 89.954,-9.15 135.325,-4.533c42.013,4.271 84.2,8.154 126.417,5.342c28.054,-1.867 56.042,-6.071 83.8,-10.758c30.358,-5.129 60.425,-11.996 90.612,-18.15c39.604,-8.079 79.179,-16.312 118.808,-24.279c42.004,-8.446 84.029,-16.775 126.087,-24.942c50.633,-9.829 101.238,-19.842 151.987,-29.029c51.183,-9.271 102.4,-18.55 153.85,-26.1c39.767,-5.829 79.829,-10.612 119.925,-12.913c44.133,-2.533 83.375,12.308 116.9,41.567c24.5,21.379 42.913,47.654 61.033,74.258c4.654,6.829 9.3,13.683 14.054,20.454c25.563,36.387 60.112,56.796 114.212,31.942c3.604,-1.658 7.275,-3.154 10.929,-4.683c24.412,-10.225 49.575,-15.35 76.15,-11.904c12.762,1.654 24.821,5.496 35.842,11.925c29.996,17.492 62.592,22.75 96.654,20.925c24.525,-1.317 46.712,-10.438 68.158,-21.738c23.754,-12.517 47.008,-26.213 73.475,-32.621c53.671,-12.992 109.587,2.492 140.363,51.271c2.062,3.271 5.287,5.767 3.808,10.129c-1.871,5.517 -7.833,5.492 -12.688,7.154c-1.246,0.429 -4.033,-0.925 -4.804,-2.229c-23.471,-39.679 -59.088,-54.229 -103.725,-50.558c-25.296,2.079 -47.204,13.329 -69.388,24.35c-19.521,9.7 -39.275,19.158 -59.625,26.904c-28.058,10.675 -58.379,6.846 -87.838,4.442c-16.396,-1.338 -32.417,-6.546 -45.867,-16.021c-27.396,-19.3 -57.233,-19.421 -86.525,-9.892c-17.604,5.729 -34.333,14.092 -51.713,20.592c-16.288,6.088 -33.121,10.133 -50.712,6.671c-20.417,-4.017 -34.65,-17.342 -46.433,-33.15c-14.617,-19.621 -28.167,-40.033 -42.171,-60.108c-17.471,-25.042 -36.55,-48.592 -62.221,-65.883c-23.058,-15.529 -48.654,-25.004 -76.337,-24.362c-30.754,0.712 -61.571,3.433 -92.121,7.229c-35.767,4.446 -71.333,10.633 -106.875,16.725c-41.142,7.05 -82.192,14.65 -123.221,22.321c-42.742,7.988 -85.454,16.154 -128.112,24.579c-48.663,9.608 -97.25,19.588 -145.871,29.396c-41.55,8.379 -83.088,16.821 -124.663,25.083c-43.067,8.563 -85.971,18.275 -129.804,21.992c-3.462,0.292 -6.95,0.408 -10.425,0.367c-62.471,-0.758 -124.583,-9.329 -187.025,-9.971c-3.1,-0.033 -8.175,0.179 -11.262,0.475c-47.504,4.562 -77.621,9.867 -133.717,21.746c-102.325,21.671 -91.421,16.9 -95.704,18.408c0,0 -16.733,6.075 -70.662,6.388c-0.542,0.004 -2.3,-0.008 -3.871,-1.117" style="fill:#1d1d1b;fill-rule:nonzero;"/><path d="M89.026,394.239c-9.396,-3.708 -5.704,-17.625 0,-18.792c3.05,-0.625 4.554,0.25 6.592,0.608c48.842,8.604 97.454,18.138 146.463,25.696c40.383,6.229 81.046,10.875 121.708,14.988c31.317,3.167 62.804,4.846 94.254,6.383c26.208,1.279 52.471,1.975 78.708,1.887c47.712,-0.162 95.454,-1.938 142.592,-9.554c40.296,-6.512 80.404,-14.504 120.263,-23.333c84.938,-18.812 167.717,-45.558 251.263,-69.496c40.296,-11.542 81.004,-21.771 121.829,-31.312c35.379,-8.271 71.429,-12.688 107.829,-14.012c55.537,-2.025 110.529,2.771 165.233,12.117c58.292,9.958 115.058,25.858 171.471,43.2c45.092,13.863 89.875,28.812 135.275,41.567c42.658,11.983 85.713,22.808 129.021,32.146c43.179,9.312 87.071,14.808 131.283,16.858c18.567,0.858 37.15,1.467 55.733,1.846c4.742,0.096 6.6,1.346 6.467,6.337c-0.421,15.904 1.65,13.538 -13.154,13.192c-41.558,-0.967 -82.983,-3.646 -124.237,-9.229c-69.942,-9.467 -138.167,-26.308 -205.558,-46.783c-49.733,-15.108 -99.208,-31.054 -148.983,-46.004c-49.192,-14.779 -98.946,-27.262 -149.737,-35.613c-47.871,-7.875 -95.979,-11.496 -144.425,-10.662c-43.258,0.742 -86.033,6.517 -127.775,17.392c-62.754,16.35 -125.179,34.029 -187.483,52.037c-67.371,19.467 -134.733,39.042 -203.521,52.788c-42.608,8.517 -85.658,15.179 -128.754,20.788c-26.171,3.404 -52.808,4.371 -79.238,4.371c-45.246,-0.004 -90.604,0.042 -135.708,-3c-54.287,-3.663 -108.554,-9.075 -162.462,-16.417c-56.058,-7.637 -111.675,-18.471 -167.475,-27.958c-2.542,-0.433 -5.671,-1.321 -7.471,-2.033" style="fill:#1d1d1b;fill-rule:nonzero;"/><g transform="matrix(1,0,0,1,305.168817,387.31133)"><text x="96.369px" y="253.86px" style="font-family:'Optima-Regular', 'Optima';font-size:107.746px;fill:#1d1d1b;">A <tspan x="209.898px 295.96px 393.982px 524.894px 578.767px 694.65px 819.313px 873.186px 989.338px 1085.124px 1128.794px 1200.661px 1242.322px 1347.407px 1478.265px 1601.807px 1655.68px 1697.342px 1791.631px " y="253.86px 253.86px 253.86px 253.86px 253.86px 253.86px 253.86px 253.86px 253.86px 253.86px 253.86px 253.86px 253.86px 253.86px 253.86px 253.86px 253.86px 253.86px 253.86px ">LTOS DE M A RQUE SA</tspan></text><g transform="matrix(87.84375,0,0,87.84375,1434.070286,376.579087)"></g><text x="522.615px" y="376.579px" style="font-family:'Optima-Regular', 'Optima';font-size:87.844px;fill:#1d1d1b;">C<tspan x="613.287px 686.461px 720.436px 821.984px 890.326px 924.302px 997.476px 1031.452px 1109.545px 1143.52px 1201.049px 1302.5px 1326.921px 1360.896px " y="376.579px 376.579px 376.579px 376.579px 376.579px 376.579px 376.579px 376.579px 376.579px 376.579px 376.579px 376.579px 376.579px 376.579px ">O ND O M INI O</tspan></text></g></g></svg>